<mxfile host="app.diagrams.net" agent="Mozilla/5.0 (X11; Ubuntu; Linux x86_64; rv:136.0) Gecko/20100101 Firefox/136.0" version="26.1.3">
  <diagram name="Página-1" id="xZTN5IkuMU6SDncq5oaZ">
    <mxGraphModel dx="1816" dy="545" grid="1" gridSize="10" guides="1" tooltips="1" connect="1" arrows="1" fold="1" page="1" pageScale="1" pageWidth="827" pageHeight="1169" math="0" shadow="0">
      <root>
        <mxCell id="0" />
        <mxCell id="1" parent="0" />
        <mxCell id="trKilNQtLwCLrEE346-T-1" value="MongoDB" style="shape=datastore;whiteSpace=wrap;html=1;" vertex="1" parent="1">
          <mxGeometry x="640" y="250" width="90" height="100" as="geometry" />
        </mxCell>
        <mxCell id="trKilNQtLwCLrEE346-T-2" value="" style="image;html=1;image=img/lib/clip_art/computers/Server_Rack_128x128.png" vertex="1" parent="1">
          <mxGeometry x="324.5" y="140" width="80" height="80" as="geometry" />
        </mxCell>
        <mxCell id="trKilNQtLwCLrEE346-T-3" value="Backend" style="rounded=0;whiteSpace=wrap;html=1;" vertex="1" parent="1">
          <mxGeometry x="300" y="230" width="142" height="150" as="geometry" />
        </mxCell>
        <mxCell id="trKilNQtLwCLrEE346-T-4" value="" style="image;aspect=fixed;perimeter=ellipsePerimeter;html=1;align=center;shadow=0;dashed=0;spacingTop=3;image=img/lib/active_directory/laptop_client.svg;" vertex="1" parent="1">
          <mxGeometry x="-106.5" y="110" width="72" height="80" as="geometry" />
        </mxCell>
        <mxCell id="trKilNQtLwCLrEE346-T-12" value="" style="verticalLabelPosition=bottom;sketch=0;aspect=fixed;html=1;verticalAlign=top;strokeColor=none;align=center;outlineConnect=0;shape=mxgraph.citrix.tablet_2;" vertex="1" parent="1">
          <mxGeometry x="-101.24000000000001" y="350" width="66.74" height="70" as="geometry" />
        </mxCell>
        <mxCell id="trKilNQtLwCLrEE346-T-13" value="" style="sketch=0;pointerEvents=1;shadow=0;dashed=0;html=1;strokeColor=none;fillColor=#505050;labelPosition=center;verticalLabelPosition=bottom;verticalAlign=top;outlineConnect=0;align=center;shape=mxgraph.office.devices.tv;" vertex="1" parent="1">
          <mxGeometry x="-130" y="220" width="119" height="90" as="geometry" />
        </mxCell>
        <mxCell id="trKilNQtLwCLrEE346-T-14" value="src o cliente" style="text;html=1;align=center;verticalAlign=middle;resizable=0;points=[];autosize=1;strokeColor=none;fillColor=none;" vertex="1" parent="1">
          <mxGeometry x="-115.5" y="60" width="90" height="30" as="geometry" />
        </mxCell>
        <mxCell id="trKilNQtLwCLrEE346-T-15" value="" style="shape=flexArrow;endArrow=classic;html=1;rounded=0;" edge="1" parent="1">
          <mxGeometry width="50" height="50" relative="1" as="geometry">
            <mxPoint x="3.5" y="140" as="sourcePoint" />
            <mxPoint x="273.5" y="230" as="targetPoint" />
          </mxGeometry>
        </mxCell>
        <mxCell id="trKilNQtLwCLrEE346-T-16" value="1.Envia credenciales(Pin o contraseña/usuario)" style="edgeLabel;html=1;align=center;verticalAlign=middle;resizable=0;points=[];" vertex="1" connectable="0" parent="trKilNQtLwCLrEE346-T-15">
          <mxGeometry x="-0.2895" y="1" relative="1" as="geometry">
            <mxPoint x="14" as="offset" />
          </mxGeometry>
        </mxCell>
        <mxCell id="trKilNQtLwCLrEE346-T-17" value="" style="shape=flexArrow;endArrow=classic;html=1;rounded=0;" edge="1" parent="1">
          <mxGeometry width="50" height="50" relative="1" as="geometry">
            <mxPoint x="450" y="264.65999999999997" as="sourcePoint" />
            <mxPoint x="590" y="264.65999999999997" as="targetPoint" />
          </mxGeometry>
        </mxCell>
        <mxCell id="trKilNQtLwCLrEE346-T-18" value="2.Valida la existencia" style="edgeLabel;html=1;align=center;verticalAlign=middle;resizable=0;points=[];" vertex="1" connectable="0" parent="trKilNQtLwCLrEE346-T-17">
          <mxGeometry x="0.3034" relative="1" as="geometry">
            <mxPoint x="-21" as="offset" />
          </mxGeometry>
        </mxCell>
        <mxCell id="trKilNQtLwCLrEE346-T-21" value="" style="shape=flexArrow;endArrow=classic;html=1;rounded=0;" edge="1" parent="1">
          <mxGeometry width="50" height="50" relative="1" as="geometry">
            <mxPoint x="610" y="310" as="sourcePoint" />
            <mxPoint x="450" y="310" as="targetPoint" />
          </mxGeometry>
        </mxCell>
        <mxCell id="trKilNQtLwCLrEE346-T-23" value="&lt;div&gt;3. Si existe el SERVIDOR&lt;/div&gt;&lt;div&gt;crea una llave(JWT)&lt;/div&gt;" style="edgeLabel;html=1;align=center;verticalAlign=middle;resizable=0;points=[];" vertex="1" connectable="0" parent="trKilNQtLwCLrEE346-T-21">
          <mxGeometry x="-0.0374" y="-3" relative="1" as="geometry">
            <mxPoint y="3" as="offset" />
          </mxGeometry>
        </mxCell>
        <mxCell id="trKilNQtLwCLrEE346-T-24" value="" style="shape=flexArrow;endArrow=classic;html=1;rounded=0;" edge="1" parent="1">
          <mxGeometry width="50" height="50" relative="1" as="geometry">
            <mxPoint x="270" y="280" as="sourcePoint" />
            <mxPoint x="-30" y="180" as="targetPoint" />
          </mxGeometry>
        </mxCell>
        <mxCell id="trKilNQtLwCLrEE346-T-25" value="&lt;div&gt;4. El servidor le da la llave al cliente &lt;br&gt;&lt;/div&gt;&lt;div&gt;esta tiene que ser usada por el socket&lt;/div&gt;" style="edgeLabel;html=1;align=center;verticalAlign=middle;resizable=0;points=[];" vertex="1" connectable="0" parent="trKilNQtLwCLrEE346-T-24">
          <mxGeometry x="-0.0326" y="1" relative="1" as="geometry">
            <mxPoint as="offset" />
          </mxGeometry>
        </mxCell>
      </root>
    </mxGraphModel>
  </diagram>
</mxfile>
